<svg width="17" height="17" viewBox="0 0 17 17" fill="none" xmlns="http://www.w3.org/2000/svg">
<mask id="mask0_428_6696" style="mask-type:alpha" maskUnits="userSpaceOnUse" x="0" y="0" width="17" height="17">
<rect width="17" height="17" fill="#D9D9D9"/>
</mask>
<g mask="url(#mask0_428_6696)">
<path d="M5.40295 6.89252V4.99167H11.7152V6.89252H5.40295ZM4.90084 17.1499C4.37811 17.1499 3.93062 16.9638 3.55836 16.5915C3.18612 16.2193 3 15.7718 3 15.2491V2.05075C3 1.52801 3.18612 1.08053 3.55836 0.708284C3.93062 0.33603 4.37811 0.149902 4.90084 0.149902H12.2173C12.74 0.149902 13.1875 0.33603 13.5598 0.708284C13.932 1.08053 14.1181 1.52801 14.1181 2.05075V15.2491C14.1181 15.7718 13.932 16.2193 13.5598 16.5915C13.1875 16.9638 12.74 17.1499 12.2173 17.1499H4.90084ZM4.90084 12.8102H12.2173V4.48956H4.90084V12.8102Z" fill="#1C1B1F"/>
</g>
</svg>
