<svg width="17" height="17" viewBox="0 0 17 17" fill="none" xmlns="http://www.w3.org/2000/svg">
<mask id="mask0_428_6796" style="mask-type:alpha" maskUnits="userSpaceOnUse" x="0" y="0" width="17" height="17">
<rect width="17" height="17" fill="#D9D9D9"/>
</mask>
<g mask="url(#mask0_428_6796)">
<path d="M6.60511 12.1124V4.88739L12.2187 8.49989L6.60511 12.1124ZM8.4999 16.5218C7.31935 16.5218 6.19487 16.2709 5.12646 15.7692C4.05806 15.2674 3.13428 14.5561 2.35511 13.6353V15.1051H0.478027V10.3947H5.18844V12.2718H3.66553C4.244 13.0273 4.95233 13.6117 5.79053 14.0249C6.62872 14.4381 7.53185 14.6447 8.4999 14.6447C9.81032 14.6447 11.0027 14.2492 12.077 13.4582C13.1513 12.6672 13.9127 11.6284 14.3614 10.3416L16.1853 10.7666C15.6187 12.4902 14.6299 13.8803 13.2192 14.9369C11.8084 15.9935 10.2353 16.5218 8.4999 16.5218ZM0.495736 8.02176C0.578375 7.12454 0.767263 6.29815 1.0624 5.54259C1.35754 4.78704 1.78254 4.05509 2.3374 3.34676L3.68324 4.69259C3.32907 5.18843 3.03688 5.71673 2.80667 6.27749C2.57646 6.83825 2.43185 7.41968 2.37282 8.02176H0.495736ZM4.69261 3.71864L3.38219 2.35509C4.01969 1.84746 4.71327 1.43721 5.46292 1.12437C6.21258 0.811518 6.98879 0.607872 7.79157 0.513428V2.39051C7.2249 2.47315 6.67889 2.62957 6.15355 2.85978C5.6282 3.08999 5.14122 3.37627 4.69261 3.71864ZM12.3072 3.70093C11.8232 3.33496 11.3332 3.04572 10.8374 2.83322C10.3416 2.62072 9.79851 2.47315 9.20824 2.39051V0.513428C10.0228 0.607872 10.802 0.808567 11.5457 1.11551C12.2895 1.42246 12.986 1.83565 13.6353 2.35509L12.3072 3.70093ZM14.627 8.02176C14.5562 7.38426 14.4145 6.80284 14.202 6.27749C13.9895 5.75214 13.6884 5.22975 13.2989 4.7103L14.6447 3.36447C15.1759 4.03739 15.598 4.76933 15.9108 5.5603C16.2237 6.35127 16.4214 7.17176 16.5041 8.02176H14.627Z" fill="#1C1B1F"/>
</g>
</svg>
