<svg width="17" height="17" viewBox="0 0 17 17" fill="none" xmlns="http://www.w3.org/2000/svg">
<mask id="mask0_428_6790" style="mask-type:alpha" maskUnits="userSpaceOnUse" x="0" y="0" width="17" height="17">
<rect width="17" height="17" fill="#D9D9D9"/>
</mask>
<g mask="url(#mask0_428_6790)">
<path d="M12.9447 9.2792V7.68545H15.9551V9.2792H12.9447ZM13.8301 14.4146L11.4218 12.6438L12.378 11.3334L14.7863 13.1396L13.8301 14.4146ZM12.378 5.6667L11.4218 4.35628L13.8301 2.58545L14.7863 3.86045L12.378 5.6667ZM3.09884 13.7063V10.8021H2.56759C2.1544 10.8021 1.79728 10.6516 1.49624 10.3506C1.1952 10.0495 1.04468 9.69239 1.04468 9.2792V7.72087C1.04468 7.30767 1.1952 6.95055 1.49624 6.64951C1.79728 6.34847 2.1544 6.19795 2.56759 6.19795H5.04676L8.80093 3.93128V13.0688L5.04676 10.8021H4.69259V13.7063H3.09884ZM10.2176 10.9792V6.02087C10.56 6.32781 10.8344 6.69378 11.041 7.11878C11.2476 7.54378 11.3509 8.0042 11.3509 8.50003C11.3509 8.99587 11.2476 9.45628 11.041 9.88128C10.8344 10.3063 10.56 10.6723 10.2176 10.9792Z" fill="#1C1B1F"/>
</g>
</svg>
