<svg width="17" height="17" viewBox="0 0 17 17" fill="none" xmlns="http://www.w3.org/2000/svg">
<mask id="mask0_428_6702" style="mask-type:alpha" maskUnits="userSpaceOnUse" x="0" y="0" width="17" height="17">
<rect width="17" height="17" fill="#D9D9D9"/>
</mask>
<g mask="url(#mask0_428_6702)">
<path d="M12.0417 8.67705H13.4584V7.59684L14.3792 8.1458L15.0875 6.90622L14.1667 6.37497L15.0875 5.84372L14.3792 4.60413L13.4584 5.15309V4.07288H12.0417V5.15309L11.1209 4.60413L10.4125 5.84372L11.3334 6.37497L10.4125 6.90622L11.1209 8.1458L12.0417 7.59684V8.67705ZM1.27503 15.5833C0.755588 15.5833 0.31288 15.4003 -0.0530924 15.0343C-0.419065 14.6684 -0.602051 14.2257 -0.602051 13.7062V3.27601C-0.602051 2.75656 -0.419065 2.31386 -0.0530924 1.94788C0.31288 1.58191 0.755588 1.39893 1.27503 1.39893H15.725C16.2445 1.39893 16.6872 1.58191 17.0532 1.94788C17.4191 2.31386 17.6021 2.75656 17.6021 3.27601V13.7062C17.6021 14.2257 17.4191 14.6684 17.0532 15.0343C16.6872 15.4003 16.2445 15.5833 15.725 15.5833H1.27503ZM6.81774 9.45622C7.49066 9.45622 8.05732 9.22601 8.51774 8.76559C8.97816 8.30518 9.20837 7.73851 9.20837 7.06559C9.20837 6.39268 8.97816 5.82601 8.51774 5.36559C8.05732 4.90518 7.49066 4.67497 6.81774 4.67497C6.14482 4.67497 5.57816 4.90518 5.11774 5.36559C4.65732 5.82601 4.42712 6.39268 4.42712 7.06559C4.42712 7.73851 4.65732 8.30518 5.11774 8.76559C5.57816 9.22601 6.14482 9.45622 6.81774 9.45622ZM1.34587 13.7062H12.2896C11.782 12.6673 11.0353 11.8557 10.0495 11.2713C9.06375 10.6869 7.98649 10.3948 6.81774 10.3948C5.64899 10.3948 4.57173 10.6869 3.58597 11.2713C2.60021 11.8557 1.8535 12.6673 1.34587 13.7062Z" fill="#1C1B1F"/>
</g>
</svg>
