<svg width="17" height="17" viewBox="0 0 17 17" fill="none" xmlns="http://www.w3.org/2000/svg">
<mask id="mask0_428_6784" style="mask-type:alpha" maskUnits="userSpaceOnUse" x="0" y="0" width="17" height="17">
<rect width="17" height="17" fill="#D9D9D9"/>
</mask>
<g mask="url(#mask0_428_6784)">
<path d="M7.57923 17.0001V9.87034C7.35493 9.71238 7.17784 9.51534 7.04798 9.27923C6.91812 9.04312 6.85319 8.7834 6.85319 8.50006C6.85319 8.04718 7.01445 7.65948 7.33696 7.33696C7.65948 7.01445 8.04718 6.85319 8.50006 6.85319C8.95295 6.85319 9.34065 7.01445 9.66317 7.33696C9.98568 7.65948 10.1469 8.04718 10.1469 8.50006C10.1469 8.77159 10.085 9.02246 9.961 9.25267C9.83704 9.48288 9.66881 9.67472 9.45632 9.82819V17.0001H7.57923ZM3.45319 13.7949C2.74486 13.1219 2.19 12.3326 1.78861 11.4269C1.38722 10.5212 1.18652 9.54559 1.18652 8.50006C1.18652 7.48835 1.37862 6.53759 1.76281 5.64778C2.14701 4.75796 2.66842 3.98394 3.32704 3.32573C3.98566 2.66751 4.76014 2.14642 5.65049 1.76247C6.54084 1.37851 7.49218 1.18652 8.50451 1.18652C9.51682 1.18652 10.4657 1.37836 11.3511 1.76204C12.2365 2.14572 13.0092 2.66686 13.669 3.32546C14.3289 3.98406 14.8513 4.75852 15.2362 5.64886C15.6211 6.53919 15.8136 7.4905 15.8136 8.50279C15.8136 9.55167 15.6129 10.5277 15.2115 11.4308C14.8101 12.3339 14.2553 13.1219 13.5469 13.7949L12.2188 12.4667C12.7456 11.9725 13.1636 11.3855 13.4727 10.7059C13.7819 10.0263 13.9365 9.29104 13.9365 8.50006C13.9365 6.98895 13.4082 5.7051 12.3516 4.6485C11.295 3.59191 10.0112 3.06361 8.50006 3.06361C6.98895 3.06361 5.7051 3.59191 4.6485 4.6485C3.59191 5.7051 3.06361 6.98895 3.06361 8.50006C3.06361 9.29104 3.21667 10.0256 3.5228 10.7037C3.82892 11.3818 4.24842 11.9695 4.78132 12.4667L3.45319 13.7949ZM5.45423 11.7938C5.00562 11.3806 4.65441 10.8924 4.40059 10.3291C4.14677 9.76586 4.01986 9.15617 4.01986 8.50006C4.01986 7.24868 4.45371 6.18913 5.32142 5.32142C6.18913 4.45371 7.24868 4.01986 8.50006 4.01986C9.75145 4.01986 10.811 4.45371 11.6787 5.32142C12.5464 6.18913 12.9803 7.24798 12.9803 8.49798C12.9803 9.16048 12.8534 9.77211 12.5995 10.3329C12.3457 10.8936 11.9945 11.3806 11.5459 11.7938L10.2178 10.4657C10.4893 10.2296 10.7048 9.93986 10.8641 9.59653C11.0235 9.25319 11.1032 8.8877 11.1032 8.50006C11.1032 7.7842 10.8483 7.17138 10.3385 6.6616C9.82875 6.15183 9.21593 5.89694 8.50006 5.89694C7.7842 5.89694 7.17138 6.15172 6.6616 6.66129C6.15183 7.17086 5.89694 7.78343 5.89694 8.49898C5.89694 8.88929 5.97663 9.25562 6.136 9.59798C6.29538 9.94034 6.51083 10.2296 6.78236 10.4657L5.45423 11.7938Z" fill="#1C1B1F"/>
</g>
</svg>
