<svg width="17" height="17" viewBox="0 0 17 17" fill="none" xmlns="http://www.w3.org/2000/svg">
<mask id="mask0_428_6802" style="mask-type:alpha" maskUnits="userSpaceOnUse" x="0" y="0" width="17" height="17">
<rect width="17" height="17" fill="#D9D9D9"/>
</mask>
<g mask="url(#mask0_428_6802)">
<path d="M6.14484 16.1501L5.82609 13.7595C5.74345 13.7123 5.65491 13.6621 5.56047 13.609C5.46602 13.5558 5.37748 13.4998 5.29484 13.4407L3.02817 14.3793L0.690674 10.2355L2.56776 8.78345V8.14595L0.690674 6.72928L3.02817 2.62095L5.22401 3.52407C5.31845 3.46504 5.42175 3.40602 5.5339 3.34699C5.64606 3.28796 5.74935 3.22893 5.8438 3.16991L6.14484 0.814697H10.8553L11.1563 3.18761C11.2507 3.24664 11.354 3.30567 11.4662 3.3647C11.5783 3.42373 11.6816 3.48275 11.7761 3.54178L13.9719 2.62095L16.3094 6.72928L14.3969 8.18136V8.81886L16.274 10.2355L13.9365 14.3793L11.6875 13.4407C11.6049 13.488 11.5193 13.5381 11.4308 13.5913C11.3422 13.6444 11.2566 13.6946 11.174 13.7418L10.8553 16.1501H6.14484ZM8.48234 11.4397C9.30873 11.4397 10.0112 11.1505 10.5896 10.572C11.1681 9.99352 11.4573 9.29109 11.4573 8.4647C11.4573 7.63831 11.1681 6.93588 10.5896 6.35741C10.0112 5.77893 9.30873 5.4897 8.48234 5.4897C7.65595 5.4897 6.95352 5.77893 6.37505 6.35741C5.79658 6.93588 5.50734 7.63831 5.50734 8.4647C5.50734 9.29109 5.79658 9.99352 6.37505 10.572C6.95352 11.1505 7.65595 11.4397 8.48234 11.4397Z" fill="#1C1B1F"/>
</g>
</svg>
