<svg width="21" height="21" viewBox="0 0 21 21" fill="none" xmlns="http://www.w3.org/2000/svg">
<g id="ad_units">
<mask id="mask0_1387_7941" style="mask-type:alpha" maskUnits="userSpaceOnUse" x="0" y="0" width="21" height="21">
<rect id="Bounding box" width="21" height="21" fill="#D9D9D9"/>
</mask>
<g mask="url(#mask0_1387_7941)">
<path id="ad_units_2" d="M7.875 7.875C7.62708 7.875 7.41927 7.79115 7.25156 7.62344C7.08385 7.45573 7 7.24792 7 7C7 6.75208 7.08385 6.54427 7.25156 6.37656C7.41927 6.20885 7.62708 6.125 7.875 6.125H13.125C13.3729 6.125 13.5807 6.20885 13.7484 6.37656C13.9161 6.54427 14 6.75208 14 7C14 7.24792 13.9161 7.45573 13.7484 7.62344C13.5807 7.79115 13.3729 7.875 13.125 7.875H7.875ZM6.125 20.125C5.64375 20.125 5.23177 19.9536 4.88906 19.6109C4.54635 19.2682 4.375 18.8563 4.375 18.375V2.625C4.375 2.14375 4.54635 1.73177 4.88906 1.38906C5.23177 1.04635 5.64375 0.875 6.125 0.875H14.875C15.3563 0.875 15.7682 1.04635 16.1109 1.38906C16.4536 1.73177 16.625 2.14375 16.625 2.625V18.375C16.625 18.8563 16.4536 19.2682 16.1109 19.6109C15.7682 19.9536 15.3563 20.125 14.875 20.125H6.125ZM6.125 15.75H14.875V5.25H6.125V15.75Z" fill="#3366FF"/>
</g>
</g>
</svg>
