<svg width="19" height="19" viewBox="0 0 19 19" fill="none" xmlns="http://www.w3.org/2000/svg">
<path d="M9.4998 11.1092L7.7498 9.35918L9.4998 7.60918L11.2498 9.35918L9.4998 11.1092ZM7.64043 5.96855L5.45293 3.78105L8.25293 0.981055C8.42793 0.806055 8.6248 0.674805 8.84355 0.587305C9.0623 0.499805 9.28105 0.456055 9.4998 0.456055C9.71855 0.456055 9.9373 0.499805 10.1561 0.587305C10.3748 0.674805 10.5717 0.806055 10.7467 0.981055L13.5467 3.78105L11.3592 5.96855L9.4998 4.10918L7.64043 5.96855ZM3.92168 13.4061L1.12168 10.6061C0.94668 10.4311 0.81543 10.2342 0.72793 10.0154C0.64043 9.79668 0.59668 9.57793 0.59668 9.35918C0.59668 9.14043 0.64043 8.92168 0.72793 8.70293C0.81543 8.48418 0.94668 8.2873 1.12168 8.1123L3.92168 5.3123L6.10918 7.4998L4.2498 9.35918L6.10918 11.2186L3.92168 13.4061ZM15.0779 13.4061L12.8904 11.2186L14.7498 9.35918L12.8904 7.4998L15.0779 5.3123L17.8779 8.1123C18.0529 8.2873 18.1842 8.48418 18.2717 8.70293C18.3592 8.92168 18.4029 9.14043 18.4029 9.35918C18.4029 9.57793 18.3592 9.79668 18.2717 10.0154C18.1842 10.2342 18.0529 10.4311 17.8779 10.6061L15.0779 13.4061ZM8.25293 17.7373L5.45293 14.9373L7.64043 12.7498L9.4998 14.6092L11.3592 12.7498L13.5467 14.9373L10.7467 17.7373C10.5717 17.9123 10.3748 18.0436 10.1561 18.1311C9.9373 18.2186 9.71855 18.2623 9.4998 18.2623C9.28105 18.2623 9.0623 18.2186 8.84355 18.1311C8.6248 18.0436 8.42793 17.9123 8.25293 17.7373Z" fill="#3366FF"/>
</svg>
