<svg width="21" height="21" viewBox="0 0 21 21" fill="none" xmlns="http://www.w3.org/2000/svg">
<g id="article">
<mask id="mask0_1387_7947" style="mask-type:alpha" maskUnits="userSpaceOnUse" x="0" y="0" width="21" height="21">
<rect id="Bounding box" width="21" height="21" fill="#D9D9D9"/>
</mask>
<g mask="url(#mask0_1387_7947)">
<path id="article_2" d="M7 14.875H11.375C11.6229 14.875 11.8307 14.7911 11.9984 14.6234C12.1661 14.4557 12.25 14.2479 12.25 14C12.25 13.7521 12.1661 13.5443 11.9984 13.3766C11.8307 13.2089 11.6229 13.125 11.375 13.125H7C6.75208 13.125 6.54427 13.2089 6.37656 13.3766C6.20885 13.5443 6.125 13.7521 6.125 14C6.125 14.2479 6.20885 14.4557 6.37656 14.6234C6.54427 14.7911 6.75208 14.875 7 14.875ZM7 11.375H14C14.2479 11.375 14.4557 11.2911 14.6234 11.1234C14.7911 10.9557 14.875 10.7479 14.875 10.5C14.875 10.2521 14.7911 10.0443 14.6234 9.87656C14.4557 9.70885 14.2479 9.625 14 9.625H7C6.75208 9.625 6.54427 9.70885 6.37656 9.87656C6.20885 10.0443 6.125 10.2521 6.125 10.5C6.125 10.7479 6.20885 10.9557 6.37656 11.1234C6.54427 11.2911 6.75208 11.375 7 11.375ZM7 7.875H14C14.2479 7.875 14.4557 7.79115 14.6234 7.62344C14.7911 7.45573 14.875 7.24792 14.875 7C14.875 6.75208 14.7911 6.54427 14.6234 6.37656C14.4557 6.20885 14.2479 6.125 14 6.125H7C6.75208 6.125 6.54427 6.20885 6.37656 6.37656C6.20885 6.54427 6.125 6.75208 6.125 7C6.125 7.24792 6.20885 7.45573 6.37656 7.62344C6.54427 7.79115 6.75208 7.875 7 7.875ZM4.375 18.375C3.89375 18.375 3.48177 18.2036 3.13906 17.8609C2.79635 17.5182 2.625 17.1063 2.625 16.625V4.375C2.625 3.89375 2.79635 3.48177 3.13906 3.13906C3.48177 2.79635 3.89375 2.625 4.375 2.625H16.625C17.1063 2.625 17.5182 2.79635 17.8609 3.13906C18.2036 3.48177 18.375 3.89375 18.375 4.375V16.625C18.375 17.1063 18.2036 17.5182 17.8609 17.8609C17.5182 18.2036 17.1063 18.375 16.625 18.375H4.375Z" fill="#3366FF"/>
</g>
</g>
</svg>
