<svg width="21" height="21" viewBox="0 0 21 21" fill="none" xmlns="http://www.w3.org/2000/svg">
<g id="cast">
<mask id="mask0_1387_7965" style="mask-type:alpha" maskUnits="userSpaceOnUse" x="0" y="0" width="21" height="21">
<rect id="Bounding box" width="21" height="21" fill="#D9D9D9"/>
</mask>
<g mask="url(#mask0_1387_7965)">
<path id="cast_2" d="M3.0625 17.5C2.69792 17.5 2.38802 17.3724 2.13281 17.1172C1.8776 16.862 1.75 16.5521 1.75 16.1875C1.75 15.8229 1.8776 15.513 2.13281 15.2578C2.38802 15.0026 2.69792 14.875 3.0625 14.875C3.42708 14.875 3.73698 15.0026 3.99219 15.2578C4.2474 15.513 4.375 15.8229 4.375 16.1875C4.375 16.5521 4.2474 16.862 3.99219 17.1172C3.73698 17.3724 3.42708 17.5 3.0625 17.5ZM7 17.5C6.76667 17.5 6.5625 17.4307 6.3875 17.2922C6.2125 17.1536 6.10313 16.9677 6.05938 16.7344C5.89896 15.8156 5.48698 15.0354 4.82344 14.3937C4.1599 13.7521 3.36875 13.351 2.45 13.1906C2.23125 13.1615 2.0599 13.0557 1.93594 12.8734C1.81198 12.6911 1.75 12.4833 1.75 12.25C1.75 12.0021 1.82656 11.7943 1.97969 11.6266C2.13281 11.4589 2.31875 11.3896 2.5375 11.4188C3.90833 11.5938 5.08229 12.1698 6.05938 13.1469C7.03646 14.124 7.61979 15.2979 7.80938 16.6688C7.83854 16.9021 7.77292 17.099 7.6125 17.2594C7.45208 17.4198 7.24792 17.5 7 17.5ZM10.5 17.5C10.2521 17.5 10.0443 17.4198 9.87656 17.2594C9.70885 17.099 9.61042 16.8948 9.58125 16.6469C9.37708 14.7802 8.6151 13.1979 7.29531 11.9C5.97552 10.6021 4.38229 9.85833 2.51562 9.66875C2.28229 9.63958 2.09635 9.5375 1.95781 9.3625C1.81927 9.1875 1.75 8.98333 1.75 8.75C1.75 8.50208 1.82656 8.29063 1.97969 8.11563C2.13281 7.94063 2.31875 7.86771 2.5375 7.89688C4.88542 8.08646 6.88333 9.00156 8.53125 10.6422C10.1792 12.2828 11.1125 14.2698 11.3312 16.6031C11.3604 16.851 11.2911 17.0625 11.1234 17.2375C10.9557 17.4125 10.7479 17.5 10.5 17.5ZM13.125 17.5C13.125 15.9104 12.8297 14.4266 12.2391 13.0484C11.6484 11.6703 10.8391 10.4672 9.81094 9.43906C8.78281 8.41094 7.57604 7.60156 6.19063 7.01094C4.80521 6.42031 3.325 6.125 1.75 6.125V5.25C1.75 4.76875 1.92135 4.35677 2.26406 4.01406C2.60677 3.67135 3.01875 3.5 3.5 3.5H17.5C17.9813 3.5 18.3932 3.67135 18.7359 4.01406C19.0786 4.35677 19.25 4.76875 19.25 5.25V15.75C19.25 16.2313 19.0786 16.6432 18.7359 16.9859C18.3932 17.3286 17.9813 17.5 17.5 17.5H13.125Z" fill="#3366FF"/>
</g>
</g>
</svg>
