<svg width="21" height="21" viewBox="0 0 21 21" fill="none" xmlns="http://www.w3.org/2000/svg">
<g id="contacts">
<mask id="mask0_1387_7935" style="mask-type:alpha" maskUnits="userSpaceOnUse" x="0" y="0" width="21" height="21">
<rect id="Bounding box" width="21" height="21" fill="#D9D9D9"/>
</mask>
<g mask="url(#mask0_1387_7935)">
<path id="contacts_2" d="M10.5 11.375C11.2292 11.375 11.849 11.1198 12.3594 10.6094C12.8698 10.099 13.125 9.47917 13.125 8.75C13.125 8.02083 12.8698 7.40104 12.3594 6.89062C11.849 6.38021 11.2292 6.125 10.5 6.125C9.77083 6.125 9.15104 6.38021 8.64062 6.89062C8.13021 7.40104 7.875 8.02083 7.875 8.75C7.875 9.47917 8.13021 10.099 8.64062 10.6094C9.15104 11.1198 9.77083 11.375 10.5 11.375ZM3.5 17.5C3.01875 17.5 2.60677 17.3286 2.26406 16.9859C1.92135 16.6432 1.75 16.2313 1.75 15.75V5.25C1.75 4.76875 1.92135 4.35677 2.26406 4.01406C2.60677 3.67135 3.01875 3.5 3.5 3.5H17.5C17.9813 3.5 18.3932 3.67135 18.7359 4.01406C19.0786 4.35677 19.25 4.76875 19.25 5.25V15.75C19.25 16.2313 19.0786 16.6432 18.7359 16.9859C18.3932 17.3286 17.9813 17.5 17.5 17.5H3.5ZM5.03125 15.75H15.9688C15.3125 14.9333 14.5177 14.2917 13.5844 13.825C12.651 13.3583 11.6229 13.125 10.5 13.125C9.37708 13.125 8.34896 13.3583 7.41562 13.825C6.48229 14.2917 5.6875 14.9333 5.03125 15.75ZM4.375 20.125C4.12708 20.125 3.91927 20.0411 3.75156 19.8734C3.58385 19.7057 3.5 19.4979 3.5 19.25C3.5 19.0021 3.58385 18.7943 3.75156 18.6266C3.91927 18.4589 4.12708 18.375 4.375 18.375H16.625C16.8729 18.375 17.0807 18.4589 17.2484 18.6266C17.4161 18.7943 17.5 19.0021 17.5 19.25C17.5 19.4979 17.4161 19.7057 17.2484 19.8734C17.0807 20.0411 16.8729 20.125 16.625 20.125H4.375ZM4.375 2.625C4.12708 2.625 3.91927 2.54115 3.75156 2.37344C3.58385 2.20573 3.5 1.99792 3.5 1.75C3.5 1.50208 3.58385 1.29427 3.75156 1.12656C3.91927 0.958854 4.12708 0.875 4.375 0.875H16.625C16.8729 0.875 17.0807 0.958854 17.2484 1.12656C17.4161 1.29427 17.5 1.50208 17.5 1.75C17.5 1.99792 17.4161 2.20573 17.2484 2.37344C17.0807 2.54115 16.8729 2.625 16.625 2.625H4.375Z" fill="#3366FF"/>
</g>
</g>
</svg>
