<svg width="21" height="21" viewBox="0 0 21 21" fill="none" xmlns="http://www.w3.org/2000/svg">
<g id="data_exploration">
<mask id="mask0_1387_7971" style="mask-type:alpha" maskUnits="userSpaceOnUse" x="0" y="0" width="21" height="21">
<rect id="Bounding box" width="21" height="21" fill="#D9D9D9"/>
</mask>
<g mask="url(#mask0_1387_7971)">
<path id="data_exploration_2" d="M17.0625 17.9375C17.3104 17.9375 17.5182 17.8536 17.6859 17.6859C17.8536 17.5182 17.9375 17.3104 17.9375 17.0625C17.9375 16.8146 17.8536 16.6068 17.6859 16.4391C17.5182 16.2714 17.3104 16.1875 17.0625 16.1875C16.8146 16.1875 16.6068 16.2714 16.4391 16.4391C16.2714 16.6068 16.1875 16.8146 16.1875 17.0625C16.1875 17.3104 16.2714 17.5182 16.4391 17.6859C16.6068 17.8536 16.8146 17.9375 17.0625 17.9375ZM10.5 19.25C8.99792 19.25 7.60156 18.8927 6.31094 18.1781C5.02031 17.4635 4.00313 16.5375 3.25938 15.4L7.10938 11.55L9.3625 13.475C9.5375 13.6354 9.73802 13.7083 9.96406 13.6938C10.1901 13.6792 10.3833 13.5917 10.5438 13.4313L14 9.99688V10.5C14 10.7479 14.0839 10.9557 14.2516 11.1234C14.4193 11.2911 14.6271 11.375 14.875 11.375C15.1229 11.375 15.3307 11.2911 15.4984 11.1234C15.6661 10.9557 15.75 10.7479 15.75 10.5V7.875C15.75 7.62708 15.6661 7.41927 15.4984 7.25156C15.3307 7.08385 15.1229 7 14.875 7H12.25C12.0021 7 11.7943 7.08385 11.6266 7.25156C11.4589 7.41927 11.375 7.62708 11.375 7.875C11.375 8.12292 11.4589 8.33073 11.6266 8.49844C11.7943 8.66615 12.0021 8.75 12.25 8.75H12.7531L9.8875 11.6156L7.6125 9.7125C7.4375 9.56667 7.23698 9.4974 7.01094 9.50469C6.7849 9.51198 6.59167 9.59583 6.43125 9.75625L2.38438 13.8031C2.18021 13.3219 2.02344 12.7786 1.91406 12.1734C1.80469 11.5682 1.75 11.0104 1.75 10.5C1.75 9.28958 1.97969 8.15208 2.43906 7.0875C2.89844 6.02292 3.52187 5.09687 4.30937 4.30937C5.09687 3.52187 6.02292 2.89844 7.0875 2.43906C8.15208 1.97969 9.28958 1.75 10.5 1.75C11.7104 1.75 12.8479 1.97969 13.9125 2.43906C14.9771 2.89844 15.9031 3.52187 16.6906 4.30937C17.4781 5.09687 18.1016 6.02292 18.5609 7.0875C19.0203 8.15208 19.25 9.28958 19.25 10.5V17.5C19.25 17.9813 19.0786 18.3932 18.7359 18.7359C18.3932 19.0786 17.9813 19.25 17.5 19.25H10.5Z" fill="#3366FF"/>
</g>
</g>
</svg>
