<svg width="21" height="21" viewBox="0 0 21 21" fill="none" xmlns="http://www.w3.org/2000/svg">
<g id="sync_saved_locally">
<mask id="mask0_1387_7959" style="mask-type:alpha" maskUnits="userSpaceOnUse" x="0" y="0" width="21" height="21">
<rect id="Bounding box" width="21" height="21" fill="#D9D9D9"/>
</mask>
<g mask="url(#mask0_1387_7959)">
<path id="sync_saved_locally_2" d="M9.55938 9.82188L8.3125 8.575C8.15208 8.41458 7.95156 8.33073 7.71094 8.32344C7.47031 8.31615 7.2625 8.4 7.0875 8.575C6.92708 8.73542 6.84688 8.93958 6.84688 9.1875C6.84688 9.43542 6.92708 9.63958 7.0875 9.8L8.94688 11.6813C9.12188 11.8563 9.32604 11.9438 9.55938 11.9438C9.79271 11.9438 9.99687 11.8563 10.1719 11.6813L14.2406 7.9625C14.2406 7.72917 14.226 7.50313 14.1969 7.28438C14.1677 7.06563 14.0729 6.87604 13.9125 6.71563C13.7375 6.54063 13.5297 6.45312 13.2891 6.45312C13.0484 6.45312 12.8406 6.54063 12.6656 6.71563L9.55938 9.82188ZM0.875 18.375V16.625H19.25C19.4979 16.625 19.7057 16.7089 19.8734 16.8766C20.0411 17.0443 20.125 17.2521 20.125 17.5C20.125 17.7479 20.0411 17.9557 19.8734 18.1234C19.7057 18.2911 19.4979 18.375 19.25 18.375H0.875ZM3.5 15.75C3.01875 15.75 2.60677 15.5786 2.26406 15.2359C1.92135 14.8932 1.75 14.4813 1.75 14V4.375C1.75 3.89375 1.92135 3.48177 2.26406 3.13906C2.60677 2.79635 3.01875 2.625 3.5 2.625H17.5C17.9813 2.625 18.3932 2.79635 18.7359 3.13906C19.0786 3.48177 19.25 3.89375 19.25 4.375V14C19.25 14.4813 19.0786 14.8932 18.7359 15.2359C18.3932 15.5786 17.9813 15.75 17.5 15.75H3.5Z" fill="#3366FF"/>
</g>
</g>
</svg>
