<svg width="21" height="21" viewBox="0 0 21 21" fill="none" xmlns="http://www.w3.org/2000/svg">
<g id="time_auto">
<mask id="mask0_1387_7977" style="mask-type:alpha" maskUnits="userSpaceOnUse" x="0" y="0" width="21" height="21">
<rect id="Bounding box" width="21" height="21" fill="#D9D9D9"/>
</mask>
<g mask="url(#mask0_1387_7977)">
<path id="time_auto_2" d="M9.12188 13.3438H11.8344L12.1625 14.35C12.2208 14.5104 12.3156 14.638 12.4469 14.7328C12.5781 14.8276 12.724 14.875 12.8844 14.875C13.1615 14.875 13.3766 14.762 13.5297 14.5359C13.6828 14.3099 13.7156 14.0729 13.6281 13.825L11.5719 8.02813C11.5135 7.86771 11.4115 7.73646 11.2656 7.63437C11.1198 7.53229 10.9594 7.48125 10.7844 7.48125H10.2156C10.0406 7.48125 9.88021 7.53229 9.73438 7.63437C9.58854 7.73646 9.48646 7.86771 9.42813 8.02813L7.35 13.8688C7.2625 14.1167 7.29531 14.3464 7.44844 14.5578C7.60156 14.7693 7.80937 14.875 8.07187 14.875C8.23229 14.875 8.37812 14.8276 8.50937 14.7328C8.64062 14.638 8.73542 14.5104 8.79375 14.35L9.12188 13.3438ZM9.5375 12.075L10.5 9.1875L11.4406 12.075H9.5375ZM8.75 2.625C8.50208 2.625 8.29427 2.54115 8.12656 2.37344C7.95885 2.20573 7.875 1.99792 7.875 1.75C7.875 1.50208 7.95885 1.29427 8.12656 1.12656C8.29427 0.958854 8.50208 0.875 8.75 0.875H12.25C12.4979 0.875 12.7057 0.958854 12.8734 1.12656C13.0411 1.29427 13.125 1.50208 13.125 1.75C13.125 1.99792 13.0411 2.20573 12.8734 2.37344C12.7057 2.54115 12.4979 2.625 12.25 2.625H8.75ZM10.5 19.25C9.42083 19.25 8.40365 19.0422 7.44844 18.6266C6.49323 18.2109 5.65833 17.6458 4.94375 16.9313C4.22917 16.2167 3.66406 15.3818 3.24844 14.4266C2.83281 13.4714 2.625 12.4542 2.625 11.375C2.625 10.2958 2.83281 9.27865 3.24844 8.32344C3.66406 7.36823 4.22917 6.53333 4.94375 5.81875C5.65833 5.10417 6.49323 4.53906 7.44844 4.12344C8.40365 3.70781 9.42083 3.5 10.5 3.5C11.4042 3.5 12.2719 3.64583 13.1031 3.9375C13.9344 4.22917 14.7146 4.65208 15.4438 5.20625L16.0563 4.59375C16.2167 4.43333 16.4208 4.35313 16.6688 4.35313C16.9167 4.35313 17.1208 4.43333 17.2812 4.59375C17.4417 4.75417 17.5219 4.95833 17.5219 5.20625C17.5219 5.45417 17.4417 5.65833 17.2812 5.81875L16.6688 6.43125C17.2229 7.16042 17.6458 7.94063 17.9375 8.77188C18.2292 9.60313 18.375 10.4708 18.375 11.375C18.375 12.4542 18.1672 13.4714 17.7516 14.4266C17.3359 15.3818 16.7708 16.2167 16.0563 16.9313C15.3417 17.6458 14.5068 18.2109 13.5516 18.6266C12.5964 19.0422 11.5792 19.25 10.5 19.25Z" fill="#3366FF"/>
</g>
</g>
</svg>
