<svg width="28" height="29" viewBox="0 0 28 29" fill="none" xmlns="http://www.w3.org/2000/svg">
<mask id="mask0_1130_8051" style="mask-type:alpha" maskUnits="userSpaceOnUse" x="0" y="0" width="28" height="29">
<rect y="0.5" width="28" height="28" fill="#D9D9D9"/>
</mask>
<g mask="url(#mask0_1130_8051)">
<path d="M14 20.3333C14.3306 20.3333 14.6076 20.2215 14.8313 19.9979C15.0549 19.7743 15.1667 19.4972 15.1667 19.1667C15.1667 18.8361 15.0549 18.559 14.8313 18.3354C14.6076 18.1118 14.3306 18 14 18C13.6694 18 13.3924 18.1118 13.1687 18.3354C12.9451 18.559 12.8333 18.8361 12.8333 19.1667C12.8333 19.4972 12.9451 19.7743 13.1687 19.9979C13.3924 20.2215 13.6694 20.3333 14 20.3333ZM12.8333 15.6667H15.1667V8.66666H12.8333V15.6667ZM5.83333 25C5.19167 25 4.64236 24.7715 4.18542 24.3146C3.72847 23.8576 3.5 23.3083 3.5 22.6667V6.33332C3.5 5.69166 3.72847 5.14235 4.18542 4.68541C4.64236 4.22846 5.19167 3.99999 5.83333 3.99999H10.7333C10.9861 3.29999 11.409 2.7361 12.0021 2.30832C12.5951 1.88055 13.2611 1.66666 14 1.66666C14.7389 1.66666 15.4049 1.88055 15.9979 2.30832C16.591 2.7361 17.0139 3.29999 17.2667 3.99999H22.1667C22.8083 3.99999 23.3576 4.22846 23.8146 4.68541C24.2715 5.14235 24.5 5.69166 24.5 6.33332V22.6667C24.5 23.3083 24.2715 23.8576 23.8146 24.3146C23.3576 24.7715 22.8083 25 22.1667 25H5.83333ZM5.83333 22.6667H22.1667V6.33332H5.83333V22.6667ZM14 5.45832C14.2528 5.45832 14.4618 5.37568 14.6271 5.21041C14.7924 5.04513 14.875 4.8361 14.875 4.58332C14.875 4.33055 14.7924 4.12152 14.6271 3.95624C14.4618 3.79096 14.2528 3.70832 14 3.70832C13.7472 3.70832 13.5382 3.79096 13.3729 3.95624C13.2076 4.12152 13.125 4.33055 13.125 4.58332C13.125 4.8361 13.2076 5.04513 13.3729 5.21041C13.5382 5.37568 13.7472 5.45832 14 5.45832Z" fill="#D14343"/>
</g>
</svg>
