<svg width="15" height="15" viewBox="0 0 15 15" fill="none" xmlns="http://www.w3.org/2000/svg">
<mask id="mask0_859_2494" style="mask-type:alpha" maskUnits="userSpaceOnUse" x="0" y="0" width="15" height="15">
<rect width="15" height="15" fill="#D9D9D9"/>
</mask>
<g mask="url(#mask0_859_2494)">
<path d="M7.5 1.875C8.27083 1.875 8.9974 2.02344 9.67969 2.32031C10.362 2.61719 10.9583 3.02083 11.4688 3.53125C11.9792 4.04167 12.3828 4.63802 12.6797 5.32031C12.9766 6.0026 13.125 6.72917 13.125 7.5C13.125 8.27083 12.9766 8.9974 12.6797 9.67969C12.3828 10.362 11.9792 10.9583 11.4688 11.4688C10.9583 11.9792 10.362 12.3828 9.67969 12.6797C8.9974 12.9766 8.27083 13.125 7.5 13.125C7.07292 13.125 6.66146 13.0781 6.26562 12.9844C5.86979 12.8906 5.47396 12.7552 5.07812 12.5781L6.03125 11.625C6.27083 11.7083 6.51302 11.7708 6.75781 11.8125C7.0026 11.8542 7.25 11.875 7.5 11.875C8.70833 11.875 9.73958 11.4479 10.5938 10.5938C11.4479 9.73958 11.875 8.70833 11.875 7.5C11.875 6.29167 11.4479 5.26042 10.5938 4.40625C9.73958 3.55208 8.70833 3.125 7.5 3.125C6.29167 3.125 5.26042 3.55208 4.40625 4.40625C3.55208 5.26042 3.125 6.29167 3.125 7.5C3.125 7.75 3.14583 7.9974 3.1875 8.24219C3.22917 8.48698 3.29167 8.72917 3.375 8.96875L2.4375 9.90625C2.25 9.53125 2.10938 9.14323 2.01562 8.74219C1.92188 8.34115 1.875 7.92708 1.875 7.5C1.875 6.72917 2.02344 6.0026 2.32031 5.32031C2.61719 4.63802 3.02083 4.04167 3.53125 3.53125C4.04167 3.02083 4.63802 2.61719 5.32031 2.32031C6.0026 2.02344 6.72917 1.875 7.5 1.875ZM8.125 10V7.75L2.75 13.125L1.875 12.25L7.25 6.875H5V5.625H9.375V10H8.125Z" fill="#3366FF"/>
</g>
</svg>
