<svg width="19" height="15" viewBox="0 0 19 15" fill="none" xmlns="http://www.w3.org/2000/svg">
<path d="M12.375 5.5625C12.375 8.24219 9.80469 10.375 6.6875 10.375C5.62109 10.375 4.66406 10.1562 3.81641 9.71875C3.13281 10.0742 2.25781 10.375 1.19141 10.375C1.10938 10.375 1.02734 10.3477 1 10.2656C0.972656 10.1836 0.972656 10.1016 1.05469 10.0469C1.05469 10.0195 1.68359 9.36328 2.12109 8.46094C1.41016 7.64062 1 6.65625 1 5.5625C1 2.91016 3.54297 0.75 6.6875 0.75C9.80469 0.75 12.375 2.91016 12.375 5.5625ZM17.3789 12.8906C17.8164 13.7656 18.418 14.3945 18.418 14.4219C18.4727 14.4766 18.5 14.5586 18.4727 14.6406C18.4453 14.7227 18.3633 14.75 18.2812 14.75C17.2969 14.75 16.4492 14.4766 15.7656 14.1758C15.0273 14.5312 14.1523 14.75 13.25 14.75C10.7617 14.75 8.71094 13.2188 8.13672 11.1133C11.0625 10.5391 13.25 8.26953 13.25 5.5625C13.25 5.42578 13.2227 5.28906 13.2227 5.15234C13.2227 5.15234 13.2227 5.125 13.25 5.125C16.1484 5.125 18.5 7.28516 18.5 9.9375C18.5 11.0586 18.0625 12.0703 17.3789 12.8906Z" fill="#414951"/>
</svg>
