<svg width="17" height="17" viewBox="0 0 17 17" fill="none" xmlns="http://www.w3.org/2000/svg">
<mask id="mask0_783_1850" style="mask-type:alpha" maskUnits="userSpaceOnUse" x="0" y="0" width="17" height="17">
<rect width="17" height="17" fill="#D9D9D9"/>
</mask>
<g mask="url(#mask0_783_1850)">
<path d="M2.51468 17.5137V15.6366H14.4855V17.5137H2.51468ZM2.51468 1.36366V-0.513428H14.4855V1.36366H2.51468ZM8.5001 9.58032C9.16121 9.58032 9.72492 9.35011 10.1912 8.8897C10.6576 8.42928 10.8907 7.86261 10.8907 7.1897C10.8907 6.52859 10.6576 5.96487 10.1912 5.49855C9.72492 5.03223 9.16121 4.79907 8.5001 4.79907C7.82718 4.79907 7.26051 5.03223 6.8001 5.49855C6.33968 5.96487 6.10947 6.52859 6.10947 7.1897C6.10947 7.86261 6.33968 8.42928 6.8001 8.8897C7.26051 9.35011 7.82718 9.58032 8.5001 9.58032ZM2.72718 14.698C2.20774 14.698 1.76503 14.515 1.39906 14.1491C1.03308 13.7831 0.850098 13.3404 0.850098 12.8209V4.19699C0.850098 3.66574 1.03308 3.21713 1.39906 2.85116C1.76503 2.48518 2.20774 2.3022 2.72718 2.3022H14.2553C14.7866 2.3022 15.2352 2.48518 15.6011 2.85116C15.9671 3.21713 16.1501 3.66574 16.1501 4.19699V12.8209C16.1501 13.3404 15.9671 13.7831 15.6011 14.1491C15.2352 14.515 14.7866 14.698 14.2553 14.698H2.72718ZM3.43551 12.8209H13.5647C13.0216 12.0418 12.3133 11.4131 11.4397 10.935C10.5661 10.4569 9.58621 10.2178 8.5001 10.2178C7.41399 10.2178 6.43413 10.4569 5.56051 10.935C4.6869 11.4131 3.97857 12.0418 3.43551 12.8209Z" fill="white"/>
</g>
</svg>
