<svg width="17" height="17" viewBox="0 0 17 17" fill="none" xmlns="http://www.w3.org/2000/svg">
<mask id="mask0_2190_6621" style="mask-type:alpha" maskUnits="userSpaceOnUse" x="0" y="-1" width="17" height="18">
<rect y="-0.000488281" width="17" height="17" fill="#D9D9D9"/>
</mask>
<g mask="url(#mask0_2190_6621)">
<path d="M7.58073 15.4412V13.5818H13.5839V8.44641C13.5839 7.04155 13.088 5.84919 12.0964 4.86933C11.1047 3.88947 9.90642 3.39954 8.50156 3.39954C7.0967 3.39954 5.90139 3.88947 4.91563 4.86933C3.92986 5.84919 3.43698 7.03908 3.43698 8.43901V12.9975H2.49844C2.04554 12.9975 1.65784 12.8362 1.33534 12.5137C1.01282 12.1912 0.851562 11.8035 0.851562 11.3506V9.93391C0.851562 9.66238 0.916493 9.41152 1.04635 9.18131C1.17622 8.9511 1.3533 8.75926 1.5776 8.60579L1.63073 7.77349C1.73315 6.88782 1.98602 6.06727 2.38932 5.31184C2.79262 4.55642 3.30122 3.89832 3.9151 3.33756C4.52899 2.77679 5.22552 2.33704 6.00469 2.01829C6.78385 1.69954 7.61615 1.54016 8.50156 1.54016C9.38698 1.54016 10.2222 1.69954 11.0073 2.01829C11.7924 2.33704 12.4918 2.77384 13.1057 3.3287C13.7196 3.88356 14.2273 4.53991 14.6286 5.29775C15.03 6.05557 15.2839 6.87262 15.3901 7.7489L15.4432 8.54884C15.6675 8.69086 15.8417 8.87437 15.9656 9.09939C16.0896 9.3244 16.1516 9.56716 16.1516 9.82766V11.4568C16.1516 11.7284 16.0896 11.9763 15.9656 12.2006C15.8417 12.4249 15.6675 12.6079 15.4432 12.7495V13.5818C15.4432 14.1013 15.2632 14.541 14.9031 14.9011C14.5431 15.2612 14.1033 15.4412 13.5839 15.4412H7.58073ZM6.3778 10.5006C6.11725 10.5006 5.89549 10.4124 5.7125 10.2362C5.52951 10.0599 5.43802 9.84153 5.43802 9.58099C5.43802 9.32044 5.52951 9.09867 5.7125 8.91568C5.89549 8.7327 6.11725 8.6412 6.3778 8.6412C6.63835 8.6412 6.85675 8.7327 7.03301 8.91568C7.20927 9.09867 7.2974 9.32044 7.2974 9.58099C7.2974 9.84153 7.20927 10.0599 7.03301 10.2362C6.85675 10.4124 6.63835 10.5006 6.3778 10.5006ZM10.6455 10.5006C10.385 10.5006 10.1632 10.4124 9.98021 10.2362C9.79722 10.0599 9.70573 9.84153 9.70573 9.58099C9.70573 9.32044 9.79722 9.09867 9.98021 8.91568C10.1632 8.7327 10.385 8.6412 10.6455 8.6412C10.9061 8.6412 11.1245 8.7327 11.3007 8.91568C11.477 9.09867 11.5651 9.32044 11.5651 9.58099C11.5651 9.84153 11.477 10.0599 11.3007 10.2362C11.1245 10.4124 10.9061 10.5006 10.6455 10.5006ZM4.05677 9.17245C3.96233 7.80301 4.35234 6.6077 5.22681 5.58652C6.10127 4.56534 7.20454 4.05474 8.53661 4.05474C9.67941 4.05474 10.6676 4.43547 11.5012 5.19693C12.3348 5.95839 12.846 6.91169 13.0349 8.05683C11.9756 8.04477 10.9788 7.79975 10.0446 7.32175C9.11035 6.84375 8.3599 6.16204 7.79323 5.27662C7.5217 6.18565 7.05104 6.97369 6.38124 7.64074C5.71144 8.30778 4.93662 8.81836 4.05677 9.17245Z" fill="white"/>
</g>
</svg>
