<svg width="17" height="17" viewBox="0 0 17 17" fill="none" xmlns="http://www.w3.org/2000/svg">
<mask id="mask0_428_6690" style="mask-type:alpha" maskUnits="userSpaceOnUse" x="0" y="0" width="17" height="17">
<rect width="17" height="17" fill="#D9D9D9"/>
</mask>
<g mask="url(#mask0_428_6690)">
<path d="M3.45121 15.5583C2.93067 15.5583 2.48506 15.373 2.11437 15.0023C1.74369 14.6316 1.55835 14.186 1.55835 13.6655V3.45121C1.55835 2.93067 1.74369 2.48506 2.11437 2.11439C2.48506 1.74369 2.93067 1.55835 3.45121 1.55835H7.61192V15.5583H3.45121ZM9.50478 15.5583V8.55835H15.5583V13.6655C15.5583 14.186 15.373 14.6316 15.0023 15.0023C14.6316 15.373 14.186 15.5583 13.6655 15.5583H9.50478ZM9.50478 6.66549V1.55835H13.6655C14.186 1.55835 14.6316 1.74369 15.0023 2.11439C15.373 2.48506 15.5583 2.93067 15.5583 3.45121V6.66549H9.50478Z" fill="white"/>
</g>
</svg>
