<svg width="17" height="17" viewBox="0 0 17 17" fill="none" xmlns="http://www.w3.org/2000/svg">
<mask id="mask0_2190_7766" style="mask-type:alpha" maskUnits="userSpaceOnUse" x="0" y="-1" width="17" height="18">
<rect y="-0.000488281" width="17" height="17" fill="#D9D9D9"/>
</mask>
<g mask="url(#mask0_2190_7766)">
<path d="M8.49948 10.288L6.71094 8.49948L8.49948 6.71094L10.288 8.49948L8.49948 10.288ZM6.99427 5.59531L4.85156 3.4526L8.49948 -0.195312L12.1474 3.4526L10.0047 5.59531L8.49948 4.0901L6.99427 5.59531ZM3.4526 12.1474L-0.195312 8.49948L3.4526 4.85156L5.59531 6.99427L4.0901 8.49948L5.59531 10.0047L3.4526 12.1474ZM13.5464 12.1474L11.4036 10.0047L12.9089 8.49948L11.4036 6.99427L13.5464 4.85156L17.1943 8.49948L13.5464 12.1474ZM8.49948 17.1943L4.85156 13.5464L6.99427 11.4036L8.49948 12.9089L10.0047 11.4036L12.1474 13.5464L8.49948 17.1943Z" fill="white"/>
</g>
</svg>
