<svg width="17" height="14" viewBox="0 0 17 14" fill="none" xmlns="http://www.w3.org/2000/svg">
<path d="M0 13.1927V10.1292C0 9.66875 0.162326 9.27917 0.486979 8.96042C0.811632 8.64167 1.19826 8.48229 1.64687 8.48229H3.96667C4.14375 8.48229 4.31198 8.52361 4.47135 8.60625C4.63073 8.68889 4.76354 8.81285 4.86979 8.97812C5.23576 9.49757 5.69323 9.89896 6.24219 10.1823C6.79115 10.4656 7.38437 10.6073 8.02187 10.6073C8.65937 10.6073 9.25556 10.4656 9.81042 10.1823C10.3653 9.89896 10.8257 9.49757 11.1917 8.97812C11.2979 8.81285 11.4307 8.68889 11.5901 8.60625C11.7495 8.52361 11.9118 8.48229 12.0771 8.48229H14.3969C14.8573 8.48229 15.2469 8.64167 15.5656 8.96042C15.8844 9.27917 16.0437 9.66875 16.0437 10.1292V13.1927H10.625V11.8469C10.2236 12.0476 9.80451 12.204 9.36771 12.3161C8.9309 12.4283 8.48229 12.4844 8.02187 12.4844C7.57326 12.4844 7.13056 12.4283 6.69375 12.3161C6.25694 12.204 5.83194 12.0476 5.41875 11.8469V13.1927H0ZM8.02187 9.54479C7.63229 9.54479 7.26337 9.45035 6.9151 9.26146C6.56684 9.07257 6.27465 8.82465 6.03854 8.51771C5.80243 8.17535 5.50729 7.90972 5.15312 7.72083C4.79896 7.53194 4.42118 7.4316 4.01979 7.41979C4.39757 7.04201 4.9849 6.73212 5.78177 6.4901C6.57865 6.24809 7.32535 6.12708 8.02187 6.12708C8.73021 6.12708 9.48281 6.24809 10.2797 6.4901C11.0766 6.73212 11.6639 7.04201 12.0417 7.41979C11.6285 7.4316 11.2477 7.53194 10.8995 7.72083C10.5512 7.90972 10.259 8.17535 10.0229 8.51771C9.79861 8.83646 9.50937 9.08733 9.15521 9.27031C8.80104 9.4533 8.42326 9.54479 8.02187 9.54479ZM2.35521 7.06563C1.7059 7.06563 1.15104 6.83542 0.690625 6.375C0.230208 5.91458 0 5.35972 0 4.71042C0 4.04931 0.230208 3.49149 0.690625 3.03698C1.15104 2.58247 1.7059 2.35521 2.35521 2.35521C3.01632 2.35521 3.57413 2.58247 4.02865 3.03698C4.48316 3.49149 4.71042 4.04931 4.71042 4.71042C4.71042 5.35972 4.48316 5.91458 4.02865 6.375C3.57413 6.83542 3.01632 7.06563 2.35521 7.06563ZM13.6885 7.06563C13.0392 7.06563 12.4844 6.83542 12.024 6.375C11.5635 5.91458 11.3333 5.35972 11.3333 4.71042C11.3333 4.04931 11.5635 3.49149 12.024 3.03698C12.4844 2.58247 13.0392 2.35521 13.6885 2.35521C14.3497 2.35521 14.9075 2.58247 15.362 3.03698C15.8165 3.49149 16.0437 4.04931 16.0437 4.71042C16.0437 5.35972 15.8165 5.91458 15.362 6.375C14.9075 6.83542 14.3497 7.06563 13.6885 7.06563ZM8.02187 4.71042C7.37257 4.71042 6.81771 4.48021 6.35729 4.01979C5.89688 3.55938 5.66667 3.00451 5.66667 2.35521C5.66667 1.6941 5.89688 1.13628 6.35729 0.681771C6.81771 0.227257 7.37257 0 8.02187 0C8.68299 0 9.2408 0.227257 9.69531 0.681771C10.1498 1.13628 10.3771 1.6941 10.3771 2.35521C10.3771 3.00451 10.1498 3.55938 9.69531 4.01979C9.2408 4.48021 8.68299 4.71042 8.02187 4.71042Z" fill="white"/>
</svg>
