<svg width="17" height="17" viewBox="0 0 17 17" fill="none" xmlns="http://www.w3.org/2000/svg">
<mask id="mask0_550_1156" style="mask-type:alpha" maskUnits="userSpaceOnUse" x="0" y="0" width="17" height="17">
<rect width="17" height="17" fill="#D9D9D9"/>
</mask>
<g mask="url(#mask0_550_1156)">
<path d="M3.43543 15.4417C2.91924 15.4417 2.47734 15.2579 2.10973 14.8903C1.74214 14.5227 1.55835 14.0808 1.55835 13.5646V3.43543C1.55835 2.91924 1.74214 2.47734 2.10973 2.10975C2.47734 1.74215 2.91924 1.55835 3.43543 1.55835H13.5646C14.0808 1.55835 14.5227 1.74215 14.8903 2.10975C15.2579 2.47734 15.4417 2.91924 15.4417 3.43543V13.5646C15.4417 14.0808 15.2579 14.5227 14.8903 14.8903C14.5227 15.2579 14.0808 15.4417 13.5646 15.4417H3.43543ZM8.53543 11.1208C9.01946 11.1208 9.46807 10.991 9.88127 10.7313C10.2945 10.4715 10.625 10.1174 10.8729 9.66877H13.5646V3.43543H3.43543V9.66877H6.16252C6.41043 10.1174 6.74689 10.4715 7.17189 10.7313C7.59689 10.991 8.05141 11.1208 8.53543 11.1208ZM8.48231 10.2L5.2771 6.99481L6.48127 5.79064L7.54377 6.85314V3.7896H9.42085V6.85314L10.4833 5.79064L11.6875 6.99481L8.48231 10.2Z" fill="white"/>
</g>
</svg>
