<svg width="17" height="17" viewBox="0 0 17 17" fill="none" xmlns="http://www.w3.org/2000/svg">
<mask id="mask0_1090_1340" style="mask-type:alpha" maskUnits="userSpaceOnUse" x="0" y="-1" width="17" height="18">
<rect y="-0.000488281" width="17" height="17" fill="#D9D9D9"/>
</mask>
<g mask="url(#mask0_1090_1340)">
<path d="M10.1482 8.96001C10.5376 8.96001 10.8592 8.81539 11.113 8.52616C11.3668 8.23692 11.4937 7.90498 11.4937 7.53033H14.4688V2.76209H5.82708V7.52563H8.81979C8.81979 7.90341 8.9467 8.23692 9.20052 8.52616C9.45434 8.81539 9.77023 8.96001 10.1482 8.96001ZM5.82708 13.2808C5.31089 13.2808 4.86899 13.097 4.50138 12.7295C4.13379 12.3619 3.95 11.92 3.95 11.4038V2.76209C3.95 2.2459 4.13379 1.804 4.50138 1.43641C4.86899 1.06881 5.31089 0.88501 5.82708 0.88501H14.4688C14.9849 0.88501 15.4268 1.06881 15.7944 1.43641C16.162 1.804 16.3458 2.2459 16.3458 2.76209V11.4038C16.3458 11.92 16.162 12.3619 15.7944 12.7295C15.4268 13.097 14.9849 13.2808 14.4688 13.2808H5.82708ZM2.53333 16.5746C2.01714 16.5746 1.57524 16.3908 1.20765 16.0232C0.840051 15.6556 0.65625 15.2137 0.65625 14.6975V4.17876H2.53333V14.6975H13.0521V16.5746H2.53333Z" fill="#FAFBFF"/>
</g>
</svg>
