<svg width="17" height="17" viewBox="0 0 17 17" fill="none" xmlns="http://www.w3.org/2000/svg">
<mask id="mask0_2411_5987" style="mask-type:alpha" maskUnits="userSpaceOnUse" x="0" y="0" width="17" height="17">
<rect width="17" height="17" fill="#D9D9D9"/>
</mask>
<g mask="url(#mask0_2411_5987)">
<path d="M5.66615 12.414C5.92587 12.414 6.14722 12.3225 6.33021 12.1395C6.5132 11.9565 6.60469 11.7352 6.60469 11.4755C6.60469 11.2157 6.5132 10.9944 6.33021 10.8114C6.14722 10.6284 5.92587 10.5369 5.66615 10.5369C5.40642 10.5369 5.18507 10.6284 5.00208 10.8114C4.8191 10.9944 4.7276 11.2157 4.7276 11.4755C4.7276 11.7352 4.8191 11.9565 5.00208 12.1395C5.18507 12.3225 5.40642 12.414 5.66615 12.414ZM5.66615 9.439C5.92587 9.439 6.14722 9.34751 6.33021 9.16452C6.5132 8.98153 6.60469 8.76018 6.60469 8.50046C6.60469 8.24073 6.5132 8.01938 6.33021 7.83639C6.14722 7.65341 5.92587 7.56191 5.66615 7.56191C5.40642 7.56191 5.18507 7.65341 5.00208 7.83639C4.8191 8.01938 4.7276 8.24073 4.7276 8.50046C4.7276 8.76018 4.8191 8.98153 5.00208 9.16452C5.18507 9.34751 5.40642 9.439 5.66615 9.439ZM5.66615 6.42858C5.92587 6.42858 6.14722 6.33709 6.33021 6.1541C6.5132 5.97112 6.60469 5.74976 6.60469 5.49004C6.60469 5.23032 6.5132 5.00896 6.33021 4.82598C6.14722 4.64299 5.92587 4.5515 5.66615 4.5515C5.40642 4.5515 5.18507 4.64299 5.00208 4.82598C4.8191 5.00896 4.7276 5.23032 4.7276 5.49004C4.7276 5.74976 4.8191 5.97112 5.00208 6.1541C5.18507 6.33709 5.40642 6.42858 5.66615 6.42858ZM7.6849 12.4317H12.2891V10.5546H7.6849V12.4317ZM7.6849 9.42129H12.2891V7.54421H7.6849V9.42129ZM7.6849 6.44629H12.2891V4.56921H7.6849V6.44629ZM3.54115 15.3359C3.02495 15.3359 2.58305 15.1521 2.21545 14.7845C1.84786 14.4169 1.66406 13.975 1.66406 13.4588V3.54212C1.66406 3.02592 1.84786 2.58403 2.21545 2.21644C2.58305 1.84884 3.02495 1.66504 3.54115 1.66504H13.4578C13.974 1.66504 14.4159 1.84884 14.7835 2.21644C15.1511 2.58403 15.3349 3.02592 15.3349 3.54212V13.4588C15.3349 13.975 15.1511 14.4169 14.7835 14.7845C14.4159 15.1521 13.974 15.3359 13.4578 15.3359H3.54115Z" fill="white"/>
</g>
</svg>
