<svg width="17" height="17" viewBox="0 0 17 17" fill="none" xmlns="http://www.w3.org/2000/svg">
<mask id="mask0_550_1159" style="mask-type:alpha" maskUnits="userSpaceOnUse" x="0" y="0" width="17" height="17">
<rect width="17" height="17" fill="#D9D9D9"/>
</mask>
<g mask="url(#mask0_550_1159)">
<path d="M13.8126 16.9114L12.5022 15.601L13.3876 14.6978H10.7491V12.8208H13.3876L12.4845 11.9176L13.8126 10.6072L16.9647 13.7593L13.8126 16.9114ZM2.72718 14.6978C2.19593 14.6978 1.75027 14.5178 1.3902 14.1577C1.03013 13.7977 0.850098 13.352 0.850098 12.8208V4.17909C0.850098 3.64784 1.03013 3.20218 1.3902 2.84211C1.75027 2.48204 2.19593 2.302 2.72718 2.302H14.273C14.8043 2.302 15.2499 2.48204 15.61 2.84211C15.9701 3.20218 16.1501 3.64784 16.1501 4.17909V10.253C15.8077 10.0405 15.4388 9.88117 15.0433 9.77492C14.6478 9.66867 14.2435 9.61554 13.8303 9.61554C12.5789 9.61554 11.5164 10.0523 10.6428 10.926C9.7692 11.7996 9.33239 12.8621 9.33239 14.1135V14.6978H2.72718ZM8.5001 9.61554L14.273 6.09159V4.17909L8.5001 7.79159L2.72718 4.17909V6.09159L8.5001 9.61554Z" fill="white"/>
</g>
</svg>
