<svg width="15" height="15" viewBox="0 0 15 15" fill="none" xmlns="http://www.w3.org/2000/svg">
<path d="M8.20817 11.3962L10.6873 8.91699C10.8172 8.78713 10.9205 8.63366 10.9972 8.45658C11.074 8.27949 11.1123 8.0906 11.1123 7.88991C11.1123 7.48852 10.9707 7.14616 10.6873 6.86283C10.404 6.57949 10.0616 6.43783 9.66025 6.43783C9.43595 6.43783 9.21459 6.50276 8.99619 6.63262C8.77779 6.76248 8.51511 6.98088 8.20817 7.28783C7.854 6.95727 7.57657 6.73296 7.37588 6.61491C7.17518 6.49685 6.96859 6.43783 6.75609 6.43783C6.3547 6.43783 6.01234 6.57949 5.729 6.86283C5.44567 7.14616 5.304 7.48852 5.304 7.88991C5.304 8.0906 5.34237 8.27949 5.41911 8.45658C5.49584 8.63366 5.59914 8.78713 5.729 8.91699L8.20817 11.3962ZM9.09359 14.1587C8.82206 14.4302 8.4856 14.566 8.08421 14.566C7.68282 14.566 7.34637 14.4302 7.07484 14.1587L0.841504 7.92533C0.711643 7.79546 0.608344 7.64199 0.531608 7.46491C0.454872 7.28783 0.416504 7.09894 0.416504 6.89824V1.83366C0.416504 1.44408 0.555219 1.11057 0.83265 0.833138C1.11008 0.555707 1.44359 0.416992 1.83317 0.416992H6.89775C7.09845 0.416992 7.28734 0.45536 7.46442 0.532096C7.6415 0.608832 7.79498 0.712131 7.92484 0.841992L14.1582 7.09303C14.4297 7.36456 14.5655 7.69807 14.5655 8.09355C14.5655 8.48904 14.4297 8.82255 14.1582 9.09408L9.09359 14.1587ZM3.604 4.66699C3.89914 4.66699 4.15001 4.56369 4.35661 4.3571C4.56321 4.1505 4.6665 3.89963 4.6665 3.60449C4.6665 3.30935 4.56321 3.05849 4.35661 2.85189C4.15001 2.64529 3.89914 2.54199 3.604 2.54199C3.30886 2.54199 3.058 2.64529 2.8514 2.85189C2.6448 3.05849 2.5415 3.30935 2.5415 3.60449C2.5415 3.89963 2.6448 4.1505 2.8514 4.3571C3.058 4.56369 3.30886 4.66699 3.604 4.66699Z" fill="white"/>
</svg>
