<svg width="10" height="17" viewBox="0 0 10 17" fill="none" xmlns="http://www.w3.org/2000/svg">
<path d="M5.21354 16.7292C3.95174 16.7292 2.88194 16.2903 2.00417 15.4125C1.12639 14.5348 0.6875 13.465 0.6875 12.2032V3.56254C0.6875 2.65733 1.00981 1.88242 1.65443 1.2378C2.29905 0.593183 3.07396 0.270874 3.97917 0.270874C4.88437 0.270874 5.65929 0.593183 6.30391 1.2378C6.94852 1.88242 7.27083 2.65733 7.27083 3.56254V11.3802C7.27083 11.9563 7.07196 12.4432 6.67422 12.8409C6.27648 13.2387 5.78958 13.4375 5.21354 13.4375C4.6375 13.4375 4.15061 13.2387 3.75286 12.8409C3.35512 12.4432 3.15625 11.9563 3.15625 11.3802V3.56254H4.39062V11.3802C4.39062 11.6134 4.46949 11.8089 4.62721 11.9666C4.78494 12.1243 4.98038 12.2032 5.21354 12.2032C5.4467 12.2032 5.64214 12.1243 5.79987 11.9666C5.9576 11.8089 6.03646 11.6134 6.03646 11.3802V3.56254C6.03646 2.9865 5.83759 2.49961 5.43984 2.10186C5.0421 1.70412 4.55521 1.50525 3.97917 1.50525C3.40312 1.50525 2.91623 1.70412 2.51849 2.10186C2.12075 2.49961 1.92188 2.9865 1.92188 3.56254V12.2032C1.92188 13.1084 2.24418 13.8833 2.8888 14.5279C3.53342 15.1725 4.30833 15.4948 5.21354 15.4948C6.11875 15.4948 6.89366 15.1725 7.53828 14.5279C8.1829 13.8833 8.50521 13.1084 8.50521 12.2032V3.56254H9.73958V12.2032C9.73958 13.465 9.30069 14.5348 8.42292 15.4125C7.54514 16.2903 6.47535 16.7292 5.21354 16.7292Z" fill="white"/>
</svg>
