<svg width="138" height="16" viewBox="0 0 138 16" fill="none" xmlns="http://www.w3.org/2000/svg">
<path d="M0.417969 15.0012H3.49453V9.50682H11.2909V6.77047H3.49453V3.52018H12.6663V0.631836H0.417969V15.0012Z" fill="black"/>
<path d="M27.502 2.47051C26.8216 1.82624 25.9891 1.3195 25.0408 0.972034C24.0925 0.617325 23.0284 0.443604 21.8918 0.443604C20.7553 0.443604 19.6839 0.624564 18.7356 0.972034C17.7873 1.32674 16.9621 1.82624 16.2744 2.47051C15.5939 3.11477 15.0583 3.8966 14.6818 4.79423C14.3054 5.69186 14.1172 6.69083 14.1172 7.76944C14.1172 8.84804 14.3054 9.86151 14.6818 10.7664C15.0583 11.6712 15.5939 12.4675 16.2744 13.119C16.9549 13.7706 17.7801 14.2845 18.7356 14.6465C19.6839 15.0084 20.7481 15.1894 21.8991 15.1894C23.0501 15.1894 24.107 15.0084 25.0553 14.6465C26.0036 14.2845 26.8361 13.7706 27.5165 13.119C28.197 12.4675 28.7327 11.6712 29.1091 10.7664C29.4855 9.86151 29.6737 8.85528 29.6737 7.76944C29.6737 6.68359 29.4855 5.69186 29.1091 4.79423C28.7327 3.8966 28.197 3.11477 27.5165 2.47051H27.5093H27.502ZM21.8846 12.2721C21.2041 12.2721 20.5743 12.1635 20.0025 11.9536C19.4306 11.7437 18.9311 11.4396 18.5112 11.0487C18.0986 10.6578 17.7656 10.1873 17.534 9.6371C17.3023 9.08694 17.1793 8.46438 17.1793 7.76944C17.1793 7.07449 17.2951 6.45918 17.534 5.90902C17.7656 5.36609 18.0986 4.90282 18.5112 4.52639C18.9311 4.14997 19.4306 3.85316 20.0025 3.65771C20.5743 3.45502 21.2114 3.35368 21.8918 3.35368C22.5723 3.35368 23.2021 3.45502 23.7812 3.65771C24.3531 3.85316 24.8526 4.14997 25.2652 4.52639C25.6778 4.90282 26.0036 5.36609 26.2425 5.90902C26.4813 6.45194 26.5972 7.07449 26.5972 7.76944C26.5972 8.46438 26.4813 9.08694 26.2425 9.6371C26.0036 10.1873 25.6778 10.665 25.258 11.0487C24.8453 11.4396 24.3458 11.7437 23.774 11.9536C23.2021 12.1635 22.5651 12.2721 21.8918 12.2721H21.8846Z" fill="black"/>
<path d="M43.6419 9.72398C44.0328 9.40546 44.3586 9.03626 44.612 8.62364C44.8726 8.21826 45.0608 7.76221 45.1838 7.2772C45.3069 6.79219 45.3648 6.27824 45.3648 5.74979C45.3648 4.96074 45.2418 4.23683 44.9884 3.60704C44.735 2.97001 44.3514 2.42709 43.8374 1.97827C43.3307 1.5367 42.6792 1.20369 41.9118 0.972046C41.1517 0.747638 40.2469 0.631836 39.2117 0.631836H32.2695V15.0012H35.3461V11.027H39.2045L41.7019 15.0012H45.4589L42.5054 10.4261C42.9325 10.2307 43.3162 9.99907 43.6492 9.73122L43.6419 9.72398ZM42.1507 5.74255C42.1507 6.11173 42.0928 6.45198 41.977 6.74877C41.8612 7.04557 41.6874 7.29167 41.4558 7.49436C41.2169 7.70429 40.9201 7.86358 40.5654 7.97941C40.2034 8.09523 39.7691 8.16038 39.2841 8.16038H35.3461V3.49124H39.2841C40.2613 3.49124 40.9925 3.69393 41.463 4.08484C41.9263 4.47574 42.1507 5.0114 42.1507 5.7353V5.74255Z" fill="black"/>
<path d="M64.9256 0.624678L61.2482 9.81818L60.7777 11.418L60.1624 9.83267L58.8449 6.55339L61.3134 0.617432H58.121L57.3392 2.95565L56.4995 0.617432H53.3071L55.7756 6.55339L54.4725 9.78199L53.9803 11.4252L53.3433 9.7675L49.6948 0.624678H46.3359L52.366 14.9941H55.2761L56.5284 12.0985L57.3102 9.91229L58.092 12.1057L59.3226 14.9941H62.24L68.2628 0.624678H64.9039H64.9256Z" fill="black"/>
<path d="M97.0795 9.72398C97.4704 9.40546 97.7961 9.03626 98.0495 8.62364C98.3101 8.21826 98.4983 7.76221 98.6214 7.2772C98.7444 6.79219 98.8023 6.27824 98.8023 5.74979C98.8023 4.96074 98.6793 4.23683 98.4259 3.60704C98.1725 2.97001 97.7889 2.42709 97.2749 1.97827C96.7682 1.5367 96.1167 1.20369 95.3493 0.972046C94.5893 0.747638 93.6844 0.631836 92.6492 0.631836H85.707V15.0012H88.7836V11.027H92.642L95.1394 15.0012H98.8964L95.9429 10.4261C96.37 10.2307 96.7537 9.99907 97.0867 9.73122L97.0795 9.72398ZM95.5882 5.74255C95.5882 6.11173 95.5303 6.45198 95.4145 6.74877C95.2987 7.04557 95.1249 7.29167 94.8933 7.49436C94.6544 7.70429 94.3576 7.86358 94.0029 7.97941C93.6409 8.09523 93.2066 8.16038 92.7216 8.16038H88.7836V3.49124H92.7216C93.6989 3.49124 94.43 3.69393 94.9005 4.08484C95.3638 4.47574 95.5882 5.0114 95.5882 5.7353V5.74255Z" fill="black"/>
<path d="M113.09 2.53561C112.388 1.9203 111.491 1.44251 110.419 1.11676C109.362 0.791003 108.095 0.624512 106.662 0.624512H101.609V14.9939H106.684C108.117 15.0011 109.384 14.8201 110.441 14.4582C111.505 14.0962 112.403 13.5895 113.105 12.9452C113.807 12.301 114.343 11.5192 114.683 10.636C115.023 9.75286 115.197 8.78285 115.197 7.74768C115.197 6.66183 115.023 5.66283 114.676 4.78692C114.328 3.90376 113.793 3.14368 113.083 2.52836L113.09 2.53561ZM107.328 12.1417H104.686V3.4984H107.328C108.11 3.4984 108.798 3.59974 109.384 3.80243C109.956 3.99788 110.448 4.28743 110.832 4.64938C111.208 5.01132 111.505 5.46015 111.693 5.97412C111.889 6.49533 111.983 7.10341 111.983 7.75492C111.983 8.40643 111.881 9.03619 111.693 9.57911C111.505 10.1148 111.208 10.5781 110.832 10.9545C110.448 11.331 109.963 11.6277 109.384 11.8377C108.798 12.0476 108.11 12.1489 107.335 12.1489L107.328 12.1417Z" fill="black"/>
<path d="M120.947 0.443604H117.855V14.813H120.947V0.443604Z" fill="black"/>
<path d="M134.932 0.443604V4.87385L126.904 0.443604H123.973V14.813H127.042V4.00516L134.925 8.32685V14.813H138.002V0.443604H134.925H134.932Z" fill="black"/>
<path d="M74.4456 0.624512L68.0391 14.9939H71.2966L76.0236 4.244L80.8955 14.9939H84.1458L77.5438 0.624512H74.4456Z" fill="black"/>
</svg>
