<svg width="137" height="15" viewBox="0 0 137 15" fill="none" xmlns="http://www.w3.org/2000/svg">
<path d="M0 14.6974H3.0418V9.26518H10.7501V6.55975H3.0418V3.34618H12.1099V0.490479H0V14.6974Z" fill="white"/>
<path d="M26.7749 2.30844C26.1021 1.67145 25.279 1.17045 24.3414 0.826903C23.4038 0.476201 22.3517 0.304443 21.2281 0.304443C20.1044 0.304443 19.0451 0.483359 18.1075 0.826903C17.1699 1.1776 16.354 1.67145 15.6741 2.30844C15.0013 2.94543 14.4717 3.71842 14.0995 4.60591C13.7273 5.4934 13.5413 6.48108 13.5413 7.5475C13.5413 8.61392 13.7273 9.61593 14.0995 10.5106C14.4717 11.4052 15.0013 12.1925 15.6741 12.8367C16.3469 13.4808 17.1628 13.989 18.1075 14.3468C19.0451 14.7047 20.0972 14.8836 21.2352 14.8836C22.3732 14.8836 23.4182 14.7047 24.3557 14.3468C25.2933 13.989 26.1164 13.4808 26.7892 12.8367C27.462 12.1925 27.9916 11.4052 28.3638 10.5106C28.7359 9.61593 28.922 8.62107 28.922 7.5475C28.922 6.47392 28.7359 5.4934 28.3638 4.60591C27.9916 3.71842 27.462 2.94543 26.7892 2.30844H26.782H26.7749ZM21.2209 11.9993C20.5481 11.9993 19.9254 11.8919 19.36 11.6844C18.7946 11.4768 18.3008 11.1762 17.8857 10.7897C17.4777 10.4032 17.1485 9.938 16.9194 9.39406C16.6904 8.85011 16.5687 8.23459 16.5687 7.5475C16.5687 6.86041 16.6833 6.25204 16.9194 5.7081C17.1485 5.17131 17.4777 4.71327 17.8857 4.3411C18.3008 3.96893 18.7946 3.67547 19.36 3.48223C19.9254 3.28183 20.5553 3.18164 21.2281 3.18164C21.9008 3.18164 22.5235 3.28183 23.0961 3.48223C23.6615 3.67547 24.1553 3.96893 24.5633 4.3411C24.9713 4.71327 25.2933 5.17131 25.5295 5.7081C25.7657 6.24489 25.8802 6.86041 25.8802 7.5475C25.8802 8.23459 25.7657 8.85011 25.5295 9.39406C25.2933 9.938 24.9713 10.4104 24.5561 10.7897C24.1482 11.1762 23.6543 11.4768 23.0889 11.6844C22.5235 11.8919 21.8937 11.9993 21.2281 11.9993H21.2209Z" fill="white"/>
<path d="M42.7354 9.47988C43.1219 9.16497 43.4439 8.79994 43.6944 8.39198C43.9521 7.99118 44.1382 7.54029 44.2598 7.06076C44.3815 6.58123 44.4388 6.07308 44.4388 5.5506C44.4388 4.77047 44.3171 4.05474 44.0666 3.43207C43.8161 2.80223 43.4368 2.26545 42.9286 1.8217C42.4276 1.38511 41.7835 1.05587 41.0248 0.826845C40.2733 0.604972 39.3787 0.490479 38.3552 0.490479H31.4915V14.6974H34.5333V10.7682H38.348L40.8172 14.6974H44.5318L41.6117 10.1741C42.034 9.98086 42.4133 9.75186 42.7425 9.48705L42.7354 9.47988ZM41.261 5.54344C41.261 5.90846 41.2037 6.24485 41.0892 6.5383C40.9747 6.83174 40.8029 7.07506 40.5739 7.27546C40.3377 7.48302 40.0443 7.64051 39.6936 7.75502C39.3357 7.86954 38.9063 7.93395 38.4267 7.93395H34.5333V3.31757H38.4267C39.393 3.31757 40.1158 3.51798 40.5811 3.90446C41.0391 4.29095 41.261 4.82056 41.261 5.53628V5.54344Z" fill="white"/>
<path d="M63.7776 0.483238L60.1417 9.57285L59.6765 11.1546L59.0681 9.58718L57.7655 6.34496L60.2061 0.476074H57.0498L56.2768 2.78787L55.4466 0.476074H52.2903L54.7309 6.34496L53.4426 9.53708L52.9559 11.1617L52.3261 9.52275L48.7189 0.483238H45.3979L51.3599 14.6902H54.2371L55.4752 11.8274L56.2482 9.6659L57.0212 11.8345L58.2379 14.6902H61.1223L67.077 0.483238H63.7561H63.7776Z" fill="white"/>
<path d="M95.5698 9.47988C95.9563 9.16497 96.2784 8.79994 96.5289 8.39198C96.7866 7.99118 96.9727 7.54029 97.0943 7.06076C97.216 6.58123 97.2733 6.07308 97.2733 5.5506C97.2733 4.77047 97.1516 4.05474 96.9011 3.43207C96.6506 2.80223 96.2712 2.26545 95.7631 1.8217C95.2621 1.38511 94.6179 1.05587 93.8593 0.826845C93.1078 0.604972 92.2131 0.490479 91.1897 0.490479H84.3259V14.6974H87.3677V10.7682H91.1825L93.6517 14.6974H97.3663L94.4462 10.1741C94.8684 9.98086 95.2478 9.75186 95.577 9.48705L95.5698 9.47988ZM94.0955 5.54344C94.0955 5.90846 94.0382 6.24485 93.9237 6.5383C93.8092 6.83174 93.6374 7.07506 93.4084 7.27546C93.1722 7.48302 92.8788 7.64051 92.5281 7.75502C92.1702 7.86954 91.7408 7.93395 91.2612 7.93395H87.3677V3.31757H91.2612C92.2274 3.31757 92.9503 3.51798 93.4155 3.90446C93.8736 4.29095 94.0955 4.82056 94.0955 5.53628V5.54344Z" fill="white"/>
<path d="M111.401 2.37266C110.707 1.7643 109.82 1.29191 108.76 0.969837C107.715 0.647764 106.463 0.483154 105.046 0.483154H100.05V14.6902H105.067C106.484 14.6973 107.737 14.5184 108.782 14.1605C109.834 13.8026 110.721 13.3017 111.416 12.6647C112.11 12.0277 112.64 11.2547 112.976 10.3815C113.312 9.50836 113.484 8.5493 113.484 7.52583C113.484 6.45225 113.312 5.46455 112.969 4.59853C112.625 3.72535 112.096 2.97385 111.394 2.36549L111.401 2.37266ZM105.704 11.8702H103.092V3.32457H105.704C106.477 3.32457 107.157 3.42476 107.737 3.62516C108.302 3.81841 108.789 4.10468 109.168 4.46254C109.54 4.8204 109.834 5.26415 110.02 5.77231C110.213 6.28763 110.306 6.88885 110.306 7.53299C110.306 8.17714 110.206 8.79978 110.02 9.33657C109.834 9.8662 109.54 10.3243 109.168 10.6965C108.789 11.0686 108.309 11.362 107.737 11.5696C107.157 11.7772 106.477 11.8774 105.711 11.8774L105.704 11.8702Z" fill="white"/>
<path d="M119.167 0.304443H116.111V14.5115H119.167V0.304443Z" fill="white"/>
<path d="M132.994 0.304443V4.68463L125.057 0.304443H122.158V14.5115H125.193V3.82576L132.987 8.09861V14.5115H136.029V0.304443H132.987H132.994Z" fill="white"/>
<path d="M73.1891 0.483154L66.855 14.6902H70.0757L74.7493 4.06174L79.5661 14.6902H82.7797L76.2523 0.483154H73.1891Z" fill="white"/>
</svg>
