<svg width="25" height="25" viewBox="0 0 25 25" fill="none" xmlns="http://www.w3.org/2000/svg">
<mask id="mask0_1028_2418" style="mask-type:alpha" maskUnits="userSpaceOnUse" x="0" y="0" width="25" height="25">
<rect x="0.5" y="0.5" width="24" height="24" fill="#D9D9D9"/>
</mask>
<g mask="url(#mask0_1028_2418)">
<path d="M12.5 21.5C10.2 21.5 8.19583 20.7375 6.4875 19.2125C4.77917 17.6875 3.8 15.7833 3.55 13.5H5.6C5.83333 15.2333 6.60417 16.6667 7.9125 17.8C9.22083 18.9333 10.75 19.5 12.5 19.5C14.45 19.5 16.1042 18.8208 17.4625 17.4625C18.8208 16.1042 19.5 14.45 19.5 12.5C19.5 10.55 18.8208 8.89583 17.4625 7.5375C16.1042 6.17917 14.45 5.5 12.5 5.5C11.35 5.5 10.275 5.76667 9.275 6.3C8.275 6.83333 7.43333 7.56667 6.75 8.5H9.5V10.5H3.5V4.5H5.5V6.85C6.35 5.78333 7.3875 4.95833 8.6125 4.375C9.8375 3.79167 11.1333 3.5 12.5 3.5C13.75 3.5 14.9208 3.7375 16.0125 4.2125C17.1042 4.6875 18.0542 5.32917 18.8625 6.1375C19.6708 6.94583 20.3125 7.89583 20.7875 8.9875C21.2625 10.0792 21.5 11.25 21.5 12.5C21.5 13.75 21.2625 14.9208 20.7875 16.0125C20.3125 17.1042 19.6708 18.0542 18.8625 18.8625C18.0542 19.6708 17.1042 20.3125 16.0125 20.7875C14.9208 21.2625 13.75 21.5 12.5 21.5ZM15.3 16.7L11.5 12.9V7.5H13.5V12.1L16.7 15.3L15.3 16.7Z" fill="white"/>
</g>
</svg>
