<svg width="20" height="20" viewBox="0 0 20 20" fill="none" xmlns="http://www.w3.org/2000/svg">
<circle cx="10" cy="10" r="10" fill="#D14343"/>
<path d="M13.5204 12.1911C13.7939 12.4435 13.7939 12.8852 13.5204 13.1376C13.3942 13.2638 13.226 13.3269 13.0577 13.3269C12.8684 13.3269 12.7001 13.2638 12.5739 13.1376L10.3654 10.9291L8.13582 13.1376C8.00962 13.2638 7.84135 13.3269 7.67308 13.3269C7.48377 13.3269 7.3155 13.2638 7.1893 13.1376C6.91587 12.8852 6.91587 12.4435 7.1893 12.1911L9.39784 9.96154L7.1893 7.753C6.91587 7.5006 6.91587 7.05889 7.1893 6.80649C7.44171 6.53305 7.88341 6.53305 8.13582 6.80649L10.3654 9.01502L12.5739 6.80649C12.8263 6.53305 13.268 6.53305 13.5204 6.80649C13.7939 7.05889 13.7939 7.5006 13.5204 7.753L11.3119 9.98257L13.5204 12.1911Z" fill="white"/>
</svg>
