<svg width="15" height="14" viewBox="0 0 15 14" fill="none" xmlns="http://www.w3.org/2000/svg">
<mask id="mask0_2327_21995" style="mask-type:alpha" maskUnits="userSpaceOnUse" x="0" y="0" width="15" height="14">
<rect width="15" height="13.6364" fill="#D9D9D9"/>
</mask>
<g mask="url(#mask0_2327_21995)">
<path d="M3.125 11.9314C2.78125 11.9314 2.48698 11.8201 2.24219 11.5976C1.9974 11.375 1.875 11.1075 1.875 10.795V2.84047C1.875 2.52797 1.9974 2.26045 2.24219 2.03791C2.48698 1.81537 2.78125 1.7041 3.125 1.7041H11.875C12.2188 1.7041 12.513 1.81537 12.7578 2.03791C13.0026 2.26045 13.125 2.52797 13.125 2.84047V10.795C13.125 11.1075 13.0026 11.375 12.7578 11.5976C12.513 11.8201 12.2188 11.9314 11.875 11.9314H3.125ZM3.75 9.65865H11.25L8.90625 6.81774L7.03125 9.09047L5.625 7.38592L3.75 9.65865Z" fill="#52555B"/>
</g>
</svg>
